HIERARCHY
ROOT RootJoint
{
    OFFSET   0.000000   0.000000   0.000000
    CHANNELS 6 Xposition Yposition Zposition Xrotation Yrotation Zrotation
    JOINT lHip
    {
        OFFSET   0.100000  -0.051395   0.000000
        CHANNELS 3 Xrotation Yrotation Zrotation
        JOINT lKnee
        {
            OFFSET   0.289914  -0.289914   0.000000
            CHANNELS 3 Xrotation Yrotation Zrotation
            JOINT lAnkle
            {
                OFFSET   0.275772  -0.275772   0.000000
                CHANNELS 3 Xrotation Yrotation Zrotation
                JOINT lToeJoint
                {
                    OFFSET   0.035355  -0.035355   0.130000
                    CHANNELS 3 Xrotation Yrotation Zrotation
                    End Site
                    {
                        OFFSET   0.005657   0.008485   0.060000
                    }
                }
            }
        }
    }
    JOINT rHip
    {
        OFFSET  -0.100000  -0.051395   0.000000
        CHANNELS 3 Xrotation Yrotation Zrotation
        JOINT rKnee
        {
            OFFSET  -0.289914  -0.289914   0.000000
            CHANNELS 3 Xrotation Yrotation Zrotation
            JOINT rAnkle
            {
                OFFSET  -0.275772  -0.275772   0.000000
                CHANNELS 3 Xrotation Yrotation Zrotation
                JOINT rToeJoint
                {
                    OFFSET  -0.035355  -0.035355   0.130000
                    CHANNELS 3 Xrotation Yrotation Zrotation
                    End Site
                    {
                        OFFSET  -0.005657   0.008485   0.060000
                    }
                }
            }
        }
    }
    JOINT pelvis_lowerback
    {
        OFFSET   0.000000   0.093605   0.000000
        CHANNELS 3 Xrotation Yrotation Zrotation
        JOINT lowerback_torso
        {
            OFFSET   0.000000   0.100000   0.000000
            CHANNELS 3 Xrotation Yrotation Zrotation
            JOINT torso_head
            {
                OFFSET   0.000000   0.282350   0.000000
                CHANNELS 3 Xrotation Yrotation Zrotation
                End Site
                {
                    OFFSET   0.000000   0.192650   0.000000
                }
            }
            JOINT lTorso_Clavicle
            {
                OFFSET   0.001000   0.157500   0.000000
                CHANNELS 3 Xrotation Yrotation Zrotation
                JOINT lShoulder
                {
                    OFFSET   0.117647   0.000000   0.000000
                    CHANNELS 3 Xrotation Yrotation Zrotation
                    JOINT lElbow
                    {
                        OFFSET   0.173241  -0.173241   0.000000
                        CHANNELS 3 Xrotation Yrotation Zrotation
                        JOINT lWrist
                        {
                            OFFSET   0.169706  -0.169706   0.000000
                            CHANNELS 3 Xrotation Yrotation Zrotation
                            End Site
                            {
                                OFFSET   0.080506  -0.084042   0.000000
                            }
                        }
                    }
                }
            }
            JOINT rTorso_Clavicle
            {
                OFFSET  -0.001000   0.157500   0.000000
                CHANNELS 3 Xrotation Yrotation Zrotation
                JOINT rShoulder
                {
                    OFFSET  -0.117647   0.000000   0.000000
                    CHANNELS 3 Xrotation Yrotation Zrotation
                    JOINT rElbow
                    {
                        OFFSET  -0.173241  -0.173241   0.000000
                        CHANNELS 3 Xrotation Yrotation Zrotation
                        JOINT rWrist
                        {
                            OFFSET  -0.169706  -0.169706   0.000000
                            CHANNELS 3 Xrotation Yrotation Zrotation
                            End Site
                            {
                                OFFSET  -0.080506  -0.084042   0.000000
                            }
                        }
                    }
                }
            }
        }
    }
}
MOTION
Frames: 14
Frame Time:   0.010000
 -2.173196   0.439868   0.493891  91.796680  -5.539001 -161.942484 -95.675802  -1.460457 -56.640784  97.540077  16.826487 -63.153541  18.171477  -4.562660 -13.777320   0.000011   0.000000  -0.000001 -41.040776 -13.744811  34.613878  22.137461 -24.221820  -0.070694  17.581843 -19.865089  10.717316  -0.000016  -0.000005  -0.000001   2.738268  -0.759135  -1.420197  10.843163  -3.360529  -5.552963 -59.230253   3.297963  -8.736613   1.821173  -6.854182   9.457059 -84.286196 -48.436857  14.575109 -51.234223 -40.322418 -10.950965   4.424514 -37.657053  12.092058   1.227800  22.825302   8.019638 -49.285616  42.982267  -8.631321 -108.508023  41.418281  79.583835  66.268072  51.021104 -49.958242
 -2.175440   0.440279   0.488579  91.611662  -5.144118 -162.271627 -95.225188  -1.985618 -56.701621  96.868147  16.742211 -62.607358  18.142023  -4.760402 -14.007348   0.000008  -0.000001  -0.000000 -41.095617 -13.720350  34.866773  22.198686 -24.224840  -0.057399  17.845235 -20.049470  10.769433  -0.000010  -0.000006  -0.000002   2.738032  -0.715012  -1.344502  10.855337  -3.172716  -5.257553 -59.314875   3.408916  -8.676905   1.733742  -6.358841   9.488343 -84.360458 -48.649095  14.075421 -51.246852 -40.326800 -10.938895   4.317749 -37.963396  12.960534   1.197848  23.174446   8.261823 -48.262834  42.533819  -9.354102 -108.935194  41.299476  79.902852  66.995183  51.147307 -51.407928
 -2.177684   0.440690   0.483267  91.429033  -4.748186 -162.599293 -94.774970  -2.511241 -56.758344  96.197393  16.651812 -62.062495  18.111765  -4.958025 -14.237546   0.000004  -0.000001   0.000001 -41.150563 -13.696123  35.119665  22.259915 -24.227848  -0.044098  18.109116 -20.233624  10.822516  -0.000004  -0.000007  -0.000003   2.737739  -0.670889  -1.268807  10.866538  -2.984842  -4.962235 -59.399623   3.519781  -8.617026   1.646121  -5.863548   9.520358 -84.437844 -48.860895  13.573202 -51.259483 -40.331185 -10.926825   4.216462 -38.270985  13.831940   1.166208  23.523470   8.504844 -47.255087  42.076038 -10.060802 -109.360699  41.178892  80.220100  67.729067  51.261888 -52.863851
 -2.179928   0.441101   0.477955  91.248779  -4.351222 -162.925510 -94.325072  -3.037293 -56.810954  95.527892  16.555317 -61.519037  18.080701  -5.155525 -14.467919   0.000001  -0.000003   0.000003 -41.205612 -13.672133  35.372556  22.321146 -24.230842  -0.030794  18.373493 -20.417547  10.876565   0.000002  -0.000008  -0.000005   2.737386  -0.626766  -1.193112  10.876769  -2.796913  -4.667003 -59.484497   3.630557  -8.556976   1.558295  -5.368304   9.553106 -84.518391 -49.072239  13.068411 -51.272112 -40.335571 -10.914755   4.120737 -38.579751  14.706375   1.132865  23.872368   8.748727 -46.262223  41.609203 -10.751539 -109.784525  41.056544  80.535565  68.469115  51.364726 -54.325458
 -2.181887   0.441366   0.472947  91.123432  -3.989065 -163.229910 -93.849053  -3.511892 -56.861345  94.916131  16.509953 -61.008253  18.066005  -5.285105 -14.644352   0.000001  -0.000004   0.000002 -41.268424 -13.403750  35.626033  22.562034 -24.516926   0.111056  18.273410 -20.391598  10.744805   0.000004  -0.000009  -0.000005   2.738676  -0.583409  -1.126701  10.892257  -2.613698  -4.408641 -59.480844   3.656679  -8.497431   1.469446  -4.945304   9.426501 -84.689866 -49.129843  12.481687 -51.920442 -40.604976 -11.548269   4.582698 -38.825942  15.185522   1.091102  24.104733   9.005597 -45.260325  41.165707 -11.409667 -110.120058  40.957612  80.780580  69.208244  51.481653 -55.828473
 -2.183704   0.441558   0.468092  91.026261  -3.644234 -163.523283 -93.360007  -3.960979 -56.908818  94.333000  16.488157 -60.513533  18.059552  -5.380752 -14.793782   0.000004  -0.000006   0.000001 -41.336474 -13.013334  35.879856  22.895110 -24.943647   0.320039  17.991587 -20.259929  10.520550   0.000002  -0.000012  -0.000006   2.740768  -0.540433  -1.064933  10.910064  -2.432794  -4.168765 -59.432871   3.640544  -8.438185   1.381362  -4.558143   9.220574 -84.905394 -49.109448  11.855166 -52.898750 -40.996554 -12.516729   5.324602 -39.038101  15.469645   1.044919  24.278715   9.269094 -44.259869  40.729769 -12.044859 -110.411337  40.870300  80.990246  69.951037  51.599348 -57.355974
 -2.185520   0.441750   0.463237  90.930895  -3.298913 -163.815961 -92.871054  -4.410453 -56.952471  93.750160  16.461536 -60.019132  18.052848  -5.476382 -14.943247   0.000006  -0.000008   0.000000 -41.406189 -12.623215  36.133761  23.231073 -25.369252   0.532493  17.710553 -20.127227  10.297179   0.000001  -0.000014  -0.000006   2.742814  -0.497454  -1.003166  10.927111  -2.251817  -3.928975 -59.384882   3.624458  -8.378927   1.294720  -4.170671   9.015351 -85.120478 -49.087512  11.229035 -53.891511 -41.375466 -13.499671   6.070078 -39.247374  15.758142   0.997795  24.452501   9.533106 -43.272351  40.285574 -12.665822 -110.701806  40.782185  81.199047  70.700457  51.704662 -58.889570
 -2.187214   0.441866   0.458503  90.858065  -2.965204 -164.102141 -92.368577  -4.839023 -56.993984  93.195693  16.452045 -59.541447  18.041626  -5.552844 -15.090999   0.000006  -0.000009   0.000000 -41.508442 -12.229704  36.384171  23.668767 -25.903318   0.767204  17.317029 -19.931925   9.944630   0.000001  -0.000015  -0.000006   2.745491  -0.449778  -0.945891  10.946444  -2.052866  -3.707885 -59.334411   3.556663  -8.337268   1.226918  -3.891470   8.790581 -85.105486 -49.107892  10.853896 -54.941839 -41.765965 -14.573594   6.839291 -39.533847  16.179076   0.954279  24.524797   9.760148 -42.281539  39.860908 -13.250426 -110.955573  40.704102  81.379241  71.411222  51.850096 -60.361707
 -2.188662   0.441832   0.454012  90.828299  -2.655429 -164.376288 -91.838970  -5.225446 -57.035211  92.697176  16.482376 -59.096330  18.021720  -5.590964 -15.235279   0.000006  -0.000008   0.000002 -41.673991 -11.829357  36.627964  24.310467 -26.654345   1.047978  16.700467 -19.608998   9.335533   0.000002  -0.000013  -0.000006   2.749477  -0.392708  -0.897598  10.971111  -1.818031  -3.524140 -59.278993   3.385369  -8.330718   1.194599  -3.829224   8.525613 -84.630206 -49.215007  10.981146 -56.096858 -42.188846 -15.818784   7.658071 -39.974612  16.865981   0.919835  24.394387   9.912214 -41.269477  39.483890 -13.778191 -111.137077  40.647218  81.503441  72.043087  52.090530 -61.709431
 -2.190110   0.441798   0.449521  90.800025  -2.345516 -164.650210 -91.309305  -5.612231 -57.072875  92.198355  16.508991 -58.650889  18.001715  -5.629035 -15.379582   0.000005  -0.000006   0.000005 -41.841039 -11.429704  36.872586  24.960601 -27.402487   1.340089  16.088814 -19.279946   8.731376   0.000004  -0.000013  -0.000005   2.753415  -0.335636  -0.849308  10.995021  -1.583118  -3.340518 -59.223566   3.214082  -8.324003   1.162572  -3.766829   8.260699 -84.153533 -49.321426  11.110030 -57.271714 -42.592818 -17.083524   8.489022 -40.407728  17.565529   0.885805  24.263894  10.064037 -40.267418  39.099791 -14.294433 -111.318265  40.590035  81.627297  72.687389  52.321701 -63.068580
 -2.191558   0.441763   0.445030  90.773239  -2.035471 -164.923921 -90.779531  -5.999347 -57.106967  91.699269  16.531885 -58.205167  17.981613  -5.667055 -15.523908   0.000004  -0.000004   0.000007 -42.009593 -11.030754  37.118056  25.619530 -28.147607   1.643818  15.482090 -18.944857   8.132178   0.000004  -0.000013  -0.000005   2.757304  -0.278560  -0.801023  11.018176  -1.348129  -3.157014 -59.168127   3.042802  -8.317123   1.130837  -3.704288   7.995839 -83.675463 -49.427142  11.240549 -58.465975 -42.977394 -18.367398   9.332257 -40.832991  18.277811   0.852190  24.133320  10.215620 -39.275289  38.708797 -14.799178 -111.499133  40.532557  81.750808  73.343844  52.543403 -64.438920
 -2.192596   0.441457   0.440632  90.834678  -1.825345 -165.252119 -90.192358  -6.400963 -57.218104  91.237414  16.597219 -57.756995  17.901094  -5.691650 -15.909038   0.000005  -0.000005   0.000004 -42.191071 -10.942230  37.322276  26.409754 -28.966434   1.884317  15.050419 -18.749958   7.762119   0.000003  -0.000010  -0.000003   2.771369  -0.245384  -0.756164  11.079248  -1.209912  -2.983072 -59.151332   2.740708  -8.224717   1.110216  -3.645423   7.877086 -83.244740 -49.638062  11.310244 -59.397598 -43.278305 -19.348201   9.780098 -40.805217  18.737576   0.833361  23.946529  10.287021 -38.199781  38.344355 -15.413558 -111.556810  40.513490  81.784582  73.834438  52.656075 -65.675901
 -2.193633   0.441151   0.436235  90.897313  -1.615575 -165.580506 -89.605493  -6.803690 -57.325181  90.774887  16.659084 -57.308140  17.820408  -5.715706 -16.294219   0.000005  -0.000005   0.000000 -42.372815 -10.854341  37.526719  27.210303 -29.782251   2.139741  14.620584 -18.552432   7.394048   0.000001  -0.000008  -0.000001   2.785407  -0.212197  -0.711313  11.139898  -1.071510  -2.809286 -59.134053   2.438641  -8.132245   1.089719  -3.586516   7.758363 -82.811745 -49.848636  11.382700 -60.340744 -43.567463 -20.340415  10.227434 -40.774728  19.196838   0.814813  23.759717  10.358251 -37.134718  37.970998 -16.016054 -111.614456  40.494398  81.818321  74.330170  52.762275 -66.917540
 -2.194671   0.440845   0.431837  90.961144  -1.406167 -165.909090 -89.018880  -7.207485 -57.428187  90.311721  16.717474 -56.858636  17.739557  -5.739221 -16.679450   0.000006  -0.000006  -0.000003 -42.554825 -10.767091  37.731386  28.021715 -30.594856   2.410502  14.192592 -18.352301   7.027975   0.000000  -0.000006  -0.000000   2.799420  -0.178998  -0.666471  11.200124  -0.932925  -2.635654 -59.116290   2.136603  -8.039701   1.069346  -3.527566   7.639668 -82.376439 -50.058849  11.457950 -61.295154 -43.844650 -21.343793  10.674221 -40.741526  19.655554   0.796544  23.572883  10.429314 -36.080096  37.588943 -16.606618 -111.672070  40.475279  81.852025  74.830771  52.861931 -68.163595
